<svg width="320" height="26" viewBox="0 0 320 26" fill="none" xmlns="http://www.w3.org/2000/svg">
<path d="M47.776 6.784H49.056V21.248H47.776V6.784ZM45.44 12.592H48.208V13.68H45.44V12.592ZM41.696 8.64H42.976C42.976 12.368 41.696 15.824 37.568 18.144L36.784 17.2C40.416 15.168 41.696 12.24 41.696 8.896V8.64ZM37.344 8.64H42.144V9.744H37.344V8.64ZM44.56 7.168H45.824V20.544H44.56V7.168ZM62.0308 6.8H63.3748V17.36H62.0308V6.8ZM54.0788 19.84H63.8068V20.928H54.0788V19.84ZM54.0788 16.272H55.3908V20.208H54.0788V16.272ZM55.6148 7.792C57.7748 7.792 59.3748 9.264 59.3748 11.36C59.3748 13.44 57.7748 14.928 55.6148 14.928C53.4548 14.928 51.8388 13.44 51.8388 11.36C51.8388 9.264 53.4548 7.792 55.6148 7.792ZM55.6148 8.944C54.2068 8.944 53.1348 9.936 53.1348 11.36C53.1348 12.768 54.2068 13.76 55.6148 13.76C57.0228 13.76 58.0948 12.768 58.0948 11.36C58.0948 9.936 57.0228 8.944 55.6148 8.944ZM73.9495 10.528H77.2135V11.632H73.9495V10.528ZM76.7975 6.784H78.1255V15.408H76.7975V6.784ZM73.3735 15.84C76.3495 15.84 78.1895 16.848 78.1895 18.544C78.1895 20.256 76.3495 21.232 73.3735 21.232C70.3815 21.232 68.5415 20.256 68.5415 18.544C68.5415 16.848 70.3815 15.84 73.3735 15.84ZM73.3735 16.88C71.1975 16.88 69.8695 17.488 69.8695 18.544C69.8695 19.584 71.1975 20.192 73.3735 20.192C75.5495 20.192 76.8775 19.584 76.8775 18.544C76.8775 17.488 75.5495 16.88 73.3735 16.88ZM69.9175 8.24H71.0055V9.408C71.0055 12.08 69.3735 14.368 66.9735 15.264L66.2855 14.208C68.4295 13.424 69.9175 11.488 69.9175 9.408V8.24ZM70.1735 8.24H71.2455V9.408C71.2455 11.28 72.6535 13.072 74.7495 13.808L74.0775 14.864C71.7255 14.016 70.1735 11.84 70.1735 9.408V8.24ZM66.6855 7.84H74.4135V8.928H66.6855V7.84ZM80.9563 18.304H94.0603V19.408H80.9563V18.304ZM86.8123 14.848H88.1403V18.624H86.8123V14.848ZM82.4923 7.808H83.8043V10.384H91.1803V7.808H92.4923V15.2H82.4923V7.808ZM83.8043 11.456V14.112H91.1803V11.456H83.8043ZM105.093 7.296H106.261V8.096C106.261 10.864 103.445 12.848 100.437 13.36L99.9091 12.288C102.549 11.888 105.093 10.16 105.093 8.096V7.296ZM105.333 7.296H106.485V8.096C106.485 10.112 109.061 11.888 111.669 12.288L111.141 13.36C108.165 12.848 105.333 10.832 105.333 8.096V7.296ZM105.093 15.744H106.405V21.248H105.093V15.744ZM99.2531 14.928H112.325V16.032H99.2531V14.928ZM117.812 8.032H118.916V9.136C118.916 11.68 117.252 13.824 114.82 14.656L114.148 13.6C116.324 12.896 117.812 11.104 117.812 9.136V8.032ZM118.068 8.032H119.172V9.136C119.172 11.008 120.692 12.688 122.82 13.36L122.164 14.4C119.764 13.616 118.068 11.584 118.068 9.136V8.032ZM114.516 7.728H122.436V8.8H114.516V7.728ZM124.484 6.784H125.828V14.608H124.484V6.784ZM116.5 15.328H117.812V17.04H124.516V15.328H125.828V21.056H116.5V15.328ZM117.812 18.112V19.968H124.516V18.112H117.812ZM133.021 7.712H139.757V13.632H133.021V7.712ZM138.477 8.784H134.301V12.576H138.477V8.784ZM142.781 6.784H144.109V15.088H142.781V6.784ZM138.861 16.8H139.997V17.072C139.997 19.152 137.421 20.816 134.493 21.2L134.045 20.176C136.557 19.888 138.861 18.512 138.861 17.072V16.8ZM139.053 16.8H140.205V17.072C140.205 18.464 142.445 19.872 144.957 20.176L144.509 21.2C141.565 20.8 139.053 19.104 139.053 17.072V16.8ZM134.621 16.064H144.445V17.104H134.621V16.064ZM138.861 14.672H140.205V16.528H138.861V14.672ZM161.062 6.768H162.39V21.264H161.062V6.768ZM154.758 7.888C156.902 7.888 158.438 9.856 158.438 12.928C158.438 16.016 156.902 17.984 154.758 17.984C152.63 17.984 151.094 16.016 151.094 12.928C151.094 9.856 152.63 7.888 154.758 7.888ZM154.758 9.088C153.35 9.088 152.358 10.592 152.358 12.928C152.358 15.28 153.35 16.816 154.758 16.816C156.182 16.816 157.158 15.28 157.158 12.928C157.158 10.592 156.182 9.088 154.758 9.088ZM168.5 11.68H169.812V14.416H168.5V11.68ZM173.812 11.68H175.124V14.416H173.812V11.68ZM165.268 13.936H178.34V15.008H165.268V13.936ZM171.796 16.096C174.9 16.096 176.756 17.008 176.756 18.656C176.756 20.304 174.9 21.232 171.796 21.232C168.692 21.232 166.836 20.304 166.836 18.656C166.836 17.008 168.692 16.096 171.796 16.096ZM171.796 17.12C169.54 17.12 168.18 17.68 168.18 18.656C168.18 19.648 169.54 20.192 171.796 20.192C174.068 20.192 175.412 19.648 175.412 18.656C175.412 17.68 174.068 17.12 171.796 17.12ZM171.812 7.04C174.948 7.04 176.9 8.048 176.9 9.744C176.9 11.424 174.948 12.416 171.812 12.416C168.66 12.416 166.724 11.424 166.724 9.744C166.724 8.048 168.66 7.04 171.812 7.04ZM171.812 8.08C169.508 8.08 168.084 8.688 168.084 9.744C168.084 10.784 169.508 11.392 171.812 11.392C174.116 11.392 175.54 10.784 175.54 9.744C175.54 8.688 174.116 8.08 171.812 8.08ZM185.859 12.4H188.595V13.504H185.859V12.4ZM191.011 6.784H192.291V21.248H191.011V6.784ZM188.147 7.088H189.411V20.528H188.147V7.088ZM183.251 7.984C185.123 7.984 186.339 9.92 186.339 13.024C186.339 16.128 185.123 18.064 183.251 18.064C181.379 18.064 180.179 16.128 180.179 13.024C180.179 9.92 181.379 7.984 183.251 7.984ZM183.251 9.216C182.115 9.216 181.395 10.688 181.395 13.024C181.395 15.36 182.115 16.832 183.251 16.832C184.403 16.832 185.123 15.36 185.123 13.024C185.123 10.688 184.403 9.216 183.251 9.216ZM198.3 13.904H211.372V14.992H198.3V13.904ZM204.172 11.584H205.484V14.352H204.172V11.584ZM199.948 11.168H209.852V12.256H199.948V11.168ZM199.948 7.44H209.74V8.512H201.26V11.808H199.948V7.44ZM204.812 16.032C207.9 16.032 209.772 16.976 209.772 18.624C209.772 20.304 207.9 21.232 204.812 21.232C201.724 21.232 199.852 20.304 199.852 18.624C199.852 16.976 201.724 16.032 204.812 16.032ZM204.812 17.056C202.556 17.056 201.196 17.632 201.196 18.624C201.196 19.632 202.556 20.192 204.812 20.192C207.084 20.192 208.428 19.632 208.428 18.624C208.428 17.632 207.084 17.056 204.812 17.056ZM217.707 7.824C219.963 7.824 221.579 9.216 221.579 11.232C221.579 13.264 219.963 14.656 217.707 14.656C215.451 14.656 213.819 13.264 213.819 11.232C213.819 9.216 215.451 7.824 217.707 7.824ZM217.707 8.976C216.203 8.976 215.115 9.888 215.115 11.232C215.115 12.576 216.203 13.504 217.707 13.504C219.195 13.504 220.283 12.576 220.283 11.232C220.283 9.888 219.195 8.976 217.707 8.976ZM223.467 6.768H224.795V21.264H223.467V6.768ZM213.275 18.096L213.083 16.992C215.723 16.992 219.371 16.976 222.523 16.48L222.635 17.456C219.387 18.08 215.851 18.096 213.275 18.096ZM237.626 6.784H238.954V15.184H237.626V6.784ZM238.378 10.464H241.098V11.584H238.378V10.464ZM229.866 15.824H231.161V17.36H237.642V15.824H238.954V21.056H229.866V15.824ZM231.161 18.384V19.984H237.642V18.384H231.161ZM227.77 8.256H236.314V9.344H227.77V8.256ZM232.042 10C234.106 10 235.498 11.008 235.498 12.544C235.498 14.08 234.106 15.088 232.042 15.088C229.962 15.088 228.57 14.08 228.57 12.544C228.57 11.008 229.962 10 232.042 10ZM232.042 11.008C230.714 11.008 229.834 11.616 229.834 12.544C229.834 13.472 230.714 14.08 232.042 14.08C233.338 14.08 234.234 13.472 234.234 12.544C234.234 11.616 233.338 11.008 232.042 11.008ZM231.37 6.64H232.698V8.848H231.37V6.64ZM252.968 6.784H254.296V21.248H252.968V6.784ZM243.368 8.192H244.68V17.152H243.368V8.192ZM243.368 16.368H244.552C246.744 16.368 249.032 16.208 251.48 15.696L251.64 16.832C249.128 17.344 246.84 17.52 244.552 17.52H243.368V16.368ZM266.951 6.768H268.295V21.264H266.951V6.768ZM267.975 12.48H270.663V13.6H267.975V12.48ZM257.783 16.544H258.919C261.591 16.544 263.463 16.448 265.623 16.048L265.767 17.168C263.543 17.584 261.639 17.664 258.919 17.664H257.783V16.544ZM257.783 8.176H264.503V9.264H259.095V17.04H257.783V8.176ZM273.302 20.224C272.726 20.224 272.262 19.76 272.262 19.104C272.262 18.432 272.726 17.984 273.302 17.984C273.894 17.984 274.374 18.432 274.374 19.104C274.374 19.76 273.894 20.224 273.302 20.224ZM282.949 23.152C281.461 20.752 280.581 18.192 280.581 15.04C280.581 11.904 281.461 9.312 282.949 6.912L283.845 7.344C282.469 9.616 281.797 12.32 281.797 15.04C281.797 17.76 282.469 20.464 283.845 22.736L282.949 23.152ZM295.859 6.784H297.203V14.272H295.859V6.784ZM287.763 14.976H297.203V18.464H289.107V20.64H287.811V17.472H295.875V16.032H287.763V14.976ZM287.811 20.032H297.731V21.088H287.811V20.032ZM285.971 7.76H293.731V8.816H285.971V7.76ZM285.715 13.792L285.571 12.688C288.147 12.688 291.603 12.624 294.419 12.272L294.499 13.248C291.619 13.68 288.259 13.776 285.715 13.792ZM287.395 8.24H288.675V13.168H287.395V8.24ZM291.011 8.24H292.307V13.168H291.011V8.24ZM305.89 7.296H307.058V8.096C307.058 10.864 304.242 12.848 301.234 13.36L300.706 12.288C303.346 11.888 305.89 10.16 305.89 8.096V7.296ZM306.13 7.296H307.282V8.096C307.282 10.112 309.858 11.888 312.466 12.288L311.938 13.36C308.962 12.848 306.13 10.832 306.13 8.096V7.296ZM305.89 15.744H307.202V21.248H305.89V15.744ZM300.05 14.928H313.122V16.032H300.05V14.928ZM315.553 23.152L314.641 22.736C316.017 20.464 316.689 17.76 316.689 15.04C316.689 12.32 316.017 9.616 314.641 7.344L315.553 6.912C317.025 9.312 317.905 11.904 317.905 15.04C317.905 18.192 317.025 20.752 315.553 23.152Z" fill="#222222"/>
<rect x="0.5" y="0.5" width="25" height="25" fill="white" stroke="#DDDDDD"/>
<rect x="0.5" y="0.5" width="25" height="25" fill="white" stroke="#222222"/>
<path fill-rule="evenodd" clip-rule="evenodd" d="M11.4128 18.5872L10.5771 19.4229L9.74148 18.5872L4.72745 13.5732L5.56312 12.7375L10.5771 17.7515L19.7695 8.55912L20.6052 9.39479L11.4128 18.5872Z" fill="#222222"/>
</svg>
